<mxfile host="app.diagrams.net" modified="2024-02-14T07:04:21.220Z" agent="Mozilla/5.0 (Macintosh; Intel Mac OS X 10_15_7) AppleWebKit/605.1.15 (KHTML, like Gecko) Version/17.2.1 Safari/605.1.15" etag="wUiRlIW2e3rAIKryZ3W_" version="23.1.2" type="device">
  <diagram name="Seite-1" id="9f2MhxZ1g9ZOmBNNVXYL">
    <mxGraphModel dx="1672" dy="2113" grid="1" gridSize="10" guides="1" tooltips="1" connect="1" arrows="1" fold="1" page="1" pageScale="1" pageWidth="827" pageHeight="1169" math="0" shadow="0">
      <root>
        <mxCell id="0" />
        <mxCell id="1" parent="0" />
        <mxCell id="LFelPCNH_Ic_JFp0Q-E8-1" value="" style="rounded=0;whiteSpace=wrap;html=1;" parent="1" vertex="1">
          <mxGeometry x="50" y="210" width="310" height="200" as="geometry" />
        </mxCell>
        <mxCell id="LFelPCNH_Ic_JFp0Q-E8-6" value="" style="rounded=1;whiteSpace=wrap;html=1;" parent="1" vertex="1">
          <mxGeometry x="60" y="260" width="280" height="130" as="geometry" />
        </mxCell>
        <mxCell id="H0NY92m15wz7lc-GZ2_g-34" style="edgeStyle=orthogonalEdgeStyle;rounded=0;orthogonalLoop=1;jettySize=auto;html=1;entryX=0.5;entryY=0;entryDx=0;entryDy=0;" edge="1" parent="1" source="LFelPCNH_Ic_JFp0Q-E8-7" target="H0NY92m15wz7lc-GZ2_g-33">
          <mxGeometry relative="1" as="geometry" />
        </mxCell>
        <mxCell id="H0NY92m15wz7lc-GZ2_g-35" value="Update Application Gateway&lt;br&gt;:443" style="edgeLabel;html=1;align=center;verticalAlign=middle;resizable=0;points=[];" vertex="1" connectable="0" parent="H0NY92m15wz7lc-GZ2_g-34">
          <mxGeometry x="0.205" y="-1" relative="1" as="geometry">
            <mxPoint x="6" y="14" as="offset" />
          </mxGeometry>
        </mxCell>
        <mxCell id="LFelPCNH_Ic_JFp0Q-E8-7" value="Pod&lt;br&gt;ingress-azure-...&lt;br&gt;" style="ellipse;whiteSpace=wrap;html=1;aspect=fixed;" parent="1" vertex="1">
          <mxGeometry x="160" y="285" width="80" height="80" as="geometry" />
        </mxCell>
        <mxCell id="LFelPCNH_Ic_JFp0Q-E8-8" value="Namespace&lt;br&gt;agic" style="text;html=1;strokeColor=none;fillColor=none;align=center;verticalAlign=middle;whiteSpace=wrap;rounded=0;" parent="1" vertex="1">
          <mxGeometry x="50" y="220" width="140" height="30" as="geometry" />
        </mxCell>
        <mxCell id="LFelPCNH_Ic_JFp0Q-E8-9" value="Deployment&lt;br&gt;ingress-azure" style="text;html=1;strokeColor=none;fillColor=none;align=center;verticalAlign=middle;whiteSpace=wrap;rounded=0;" parent="1" vertex="1">
          <mxGeometry x="70" y="269" width="90" height="30" as="geometry" />
        </mxCell>
        <mxCell id="LFelPCNH_Ic_JFp0Q-E8-28" value="" style="rounded=0;whiteSpace=wrap;html=1;" parent="1" vertex="1">
          <mxGeometry x="50" y="-60" width="310" height="210" as="geometry" />
        </mxCell>
        <mxCell id="LFelPCNH_Ic_JFp0Q-E8-29" value="" style="rounded=1;whiteSpace=wrap;html=1;" parent="1" vertex="1">
          <mxGeometry x="80" y="-10" width="240" height="140" as="geometry" />
        </mxCell>
        <mxCell id="LFelPCNH_Ic_JFp0Q-E8-30" value="Pod&lt;br&gt;coredns-..." style="ellipse;whiteSpace=wrap;html=1;aspect=fixed;" parent="1" vertex="1">
          <mxGeometry x="152.5" y="12.5" width="95" height="95" as="geometry" />
        </mxCell>
        <mxCell id="LFelPCNH_Ic_JFp0Q-E8-31" value="Namespace&lt;br&gt;kube-system" style="text;html=1;strokeColor=none;fillColor=none;align=center;verticalAlign=middle;whiteSpace=wrap;rounded=0;" parent="1" vertex="1">
          <mxGeometry x="50" y="-50" width="90" height="30" as="geometry" />
        </mxCell>
        <mxCell id="LFelPCNH_Ic_JFp0Q-E8-32" value="Deployment&lt;br&gt;coredns" style="text;html=1;strokeColor=none;fillColor=none;align=center;verticalAlign=middle;whiteSpace=wrap;rounded=0;" parent="1" vertex="1">
          <mxGeometry x="85" width="90" height="30" as="geometry" />
        </mxCell>
        <mxCell id="LFelPCNH_Ic_JFp0Q-E8-34" style="edgeStyle=orthogonalEdgeStyle;rounded=0;orthogonalLoop=1;jettySize=auto;html=1;entryX=0.5;entryY=1;entryDx=0;entryDy=0;" parent="1" source="LFelPCNH_Ic_JFp0Q-E8-7" target="LFelPCNH_Ic_JFp0Q-E8-30" edge="1">
          <mxGeometry relative="1" as="geometry" />
        </mxCell>
        <mxCell id="LFelPCNH_Ic_JFp0Q-E8-35" value=":53 (DNS Auflösung für z.B Azure API)" style="edgeLabel;html=1;align=center;verticalAlign=middle;resizable=0;points=[];" parent="LFelPCNH_Ic_JFp0Q-E8-34" vertex="1" connectable="0">
          <mxGeometry x="0.375" y="-1" relative="1" as="geometry">
            <mxPoint x="-1" y="7" as="offset" />
          </mxGeometry>
        </mxCell>
        <mxCell id="LFelPCNH_Ic_JFp0Q-E8-40" style="edgeStyle=orthogonalEdgeStyle;rounded=0;orthogonalLoop=1;jettySize=auto;html=1;endArrow=none;endFill=0;dashed=1;strokeWidth=2;fillColor=#dae8fc;strokeColor=#6c8ebf;" parent="1" source="LFelPCNH_Ic_JFp0Q-E8-37" target="LFelPCNH_Ic_JFp0Q-E8-30" edge="1">
          <mxGeometry relative="1" as="geometry" />
        </mxCell>
        <mxCell id="LFelPCNH_Ic_JFp0Q-E8-37" value="Pod Label:&lt;br style=&quot;border-color: var(--border-color);&quot;&gt;k8s-app: kube-dns" style="shape=note2;boundedLbl=1;whiteSpace=wrap;html=1;size=25;verticalAlign=top;align=center;" parent="1" vertex="1">
          <mxGeometry x="140" y="-130" width="120" height="60" as="geometry" />
        </mxCell>
        <mxCell id="H0NY92m15wz7lc-GZ2_g-33" value="Azure API" style="shape=hexagon;perimeter=hexagonPerimeter2;whiteSpace=wrap;html=1;fixedSize=1;" vertex="1" parent="1">
          <mxGeometry x="122.5" y="505" width="155" height="80" as="geometry" />
        </mxCell>
        <mxCell id="H0NY92m15wz7lc-GZ2_g-36" value="IP Range&lt;br&gt;0.0.0.0/0" style="shape=note2;boundedLbl=1;whiteSpace=wrap;html=1;size=25;verticalAlign=top;align=center;" vertex="1" parent="1">
          <mxGeometry x="139" y="625.5" width="122" height="60" as="geometry" />
        </mxCell>
        <mxCell id="H0NY92m15wz7lc-GZ2_g-37" style="edgeStyle=orthogonalEdgeStyle;rounded=0;orthogonalLoop=1;jettySize=auto;html=1;entryX=0.5;entryY=0;entryDx=0;entryDy=0;entryPerimeter=0;endArrow=none;endFill=0;fillColor=#dae8fc;strokeColor=#6c8ebf;dashed=1;strokeWidth=2;exitX=0.5;exitY=1;exitDx=0;exitDy=0;" edge="1" parent="1" source="H0NY92m15wz7lc-GZ2_g-33" target="H0NY92m15wz7lc-GZ2_g-36">
          <mxGeometry relative="1" as="geometry">
            <mxPoint x="-170" y="373" as="sourcePoint" />
            <mxPoint x="-170" y="431" as="targetPoint" />
          </mxGeometry>
        </mxCell>
      </root>
    </mxGraphModel>
  </diagram>
</mxfile>
